#!OML:ASF H:\Martial Arts Walks\Project 1\Capture day 1\Session 1\male.ASF
:FULLY-SPECIFIED
:DEGREES
1805
root -2.90549 13.9746 9.83073 16.6599 13.5727 12.6914
lowerback 13.225 -0.61045 -8.7037
upperback -3.27357 -2.30685 0.297689
thorax -10.7158 -0.516957 5.75974
lowerneck -2.09568 -6.01781 -7.80967
upperneck 2.35338 -7.85305 2.80942
head 1.55687 -3.95385 2.04855
rclavicle -4.77083e-014 4.77083e-015
rhumerus -22.8917 15.2308 -63.4765
rradius 58.8618
rwrist 11.1254
rhand -1.65039 -46.1149
rfingers 7.12502
rthumb 24.0087 -74.6334
lclavicle -4.77083e-014 4.77083e-015
lhumerus -16.6281 -18.0401 85.8359
lradius 49.1506
lwrist 0.345121
lhand -24.7184 22.3382
lfingers 7.12502
lthumb 1.78358 52.3105
rfemur -75.967 -17.8737 4.77237
rtibia 71.0643
rfoot -3.32517 -0.1124
rtoes 5.19663
lfemur 22.7651 7.58223 -17.0948
ltibia 10.1269
lfoot -8.33718 28.2443
ltoes -34.3897
1806
root -2.8612 13.9384 9.60859 15.9161 13.5869 12.2925
lowerback 13.7407 -0.559792 -8.61528
upperback -3.07338 -2.25252 0.410166
thorax -10.8003 -0.493123 5.83924
lowerneck -1.89894 -5.98915 -7.82604
upperneck 2.27922 -7.83214 2.88006
head 1.50138 -3.94273 2.08214
rclavicle 4.81059e-014 1.90833e-014
rhumerus -23.027 14.4086 -63.7991
rradius 57.9545
rwrist 10.9737
rhand -1.5469 -47.1359
rfingers 7.12502
rthumb 24.1079 -75.6412
lclavicle 4.81059e-014 1.90833e-014
lhumerus -16.7999 -17.6623 86.1885
lradius 50.1716
lwrist 1.33122
lhand -24.6535 22.4416
lfingers 7.12502
lthumb 1.84623 52.4133
rfemur -75.8188 -17.4613 4.789
rtibia 71.0598
rfoot -2.14106 1.56072
rtoes 1.18319
lfemur 23.7385 7.4699 -17.4349
ltibia 8.63029
lfoot -9.36895 30.4864
ltoes -33.2238
1807
root -2.82001 13.8954 9.39898 15.0451 13.7604 12.0214
lowerback 14.3256 -0.56074 -8.67322
upperback -2.81263 -2.29654 0.521377
thorax -10.836 -0.510925 6.02348
lowerneck -1.84198 -5.95865 -7.77028
upperneck 2.41725 -7.79658 2.83475
head 1.52902 -3.92745 2.05862
rclavicle 3.04141e-014 1.27222e-014
rhumerus -23.3052 13.9162 -64.1309
rradius 57.1413
rwrist 11.0299
rhand -1.52973 -47.6997
rfingers 7.12502
rthumb 24.1244 -76.2029
lclavicle 3.04141e-014 1.27222e-014
lhumerus -17.024 -17.402 86.5404
lradius 51.0872
lwrist 2.3011
lhand -25.9226 21.6132
lfingers 7.12502
lthumb 0.620542 51.592
rfemur -75.5567 -17.5123 5.05982
rtibia 71.5433
rfoot -2.04484 3.52967
rtoes -0.310492
lfemur 24.2064 7.14074 -17.7647
ltibia 8.42691
lfoot -11.2598 32.5009
ltoes -31.5757
1808
root -2.78749 13.8613 9.19805 14.3144 13.9262 11.8084
lowerback 14.8394 -0.542656 -8.8736
upperback -2.62081 -2.33956 0.627375
thorax -10.9035 -0.515438 6.28271
lowerneck -1.8478 -5.97378 -7.50942
upperneck 2.64553 -7.81397 2.50552
head 1.57533 -3.94131 1.90176
rclavicle -2.14687e-014 -2.06736e-014
rhumerus -23.6248 13.6577 -64.5204
rradius 56.2279
rwrist 11.4439
rhand -1.78397 -48.2825
rfingers 7.12502
rthumb 23.8806 -76.8179
lclavicle -2.14687e-014 -2.06736e-014
lhumerus -17.2881 -17.392 86.8823
lradius 51.8196
lwrist 3.13949
lhand -28.8261 16.1868
lfingers 7.12502
lthumb -2.18372 46.1554
rfemur -75.5029 -17.739 5.58373
rtibia 72.4221
rfoot -2.13548 5.65087
rtoes 0.288977
lfemur 23.9305 6.78502 -18.1267
ltibia 9.33181
lfoot -13.8718 34.335
ltoes -29.6736
1809
root -2.76391 13.8311 9.00927 13.6401 13.9796 11.6456
lowerback 15.2351 -0.435887 -9.24693
upperback -2.47629 -2.29435 0.690526
thorax -10.9674 -0.467533 6.56966
lowerneck -1.65926 -6.034 -7.45034
upperneck 2.91319 -7.91164 2.53137
head 1.63261 -3.99398 1.89881
rclavicle -2.62396e-014 4.77083e-015
rhumerus -24.1231 13.6182 -64.942
rradius 55.3296
rwrist 11.897
rhand -1.5787 -48.6578
rfingers 7.12502
rthumb 24.0774 -77.1672
lclavicle -2.62396e-014 4.77083e-015
lhumerus -17.455 -17.675 87.2206
lradius 52.0893
lwrist 3.686
lhand -29.2824 18.3042
lfingers 7.12502
lthumb -2.62442 48.2678
rfemur -75.6264 -18.0071 6.26771
rtibia 73.7398
rfoot -2.31467 7.96125
rtoes -0.0211817
lfemur 23.1992 6.48909 -18.5139
ltibia 11.0877
lfoot -16.728 36.1085
ltoes -27.6637
1810
root -2.749 13.8079 8.83445 13.1457 14.0213 11.7098
lowerback 15.4877 -0.323151 -9.88636
upperback -2.4039 -2.29242 0.683329
thorax -11.0182 -0.42439 6.93573
lowerneck -1.48013 -6.05537 -7.5313
upperneck 3.25773 -7.95795 2.69611
head 1.72831 -4.02157 1.96608
rclavicle 2.10712e-014 1.59028e-015
rhumerus -24.7006 13.8116 -65.5072
rradius 54.4023
rwrist 12.4135
rhand -1.39364 -49.0124
rfingers 7.12502
rthumb 24.2549 -77.4982
lclavicle 2.10712e-014 1.59028e-015
lhumerus -17.6986 -18.1307 87.5064
lradius 52.1531
lwrist 4.07043
lhand -30.4108 16.2632
lfingers 7.12502
lthumb -3.71415 46.2106
rfemur -75.8878 -18.4117 6.80146
rtibia 75.4128
rfoot -2.51494 9.95452
rtoes 1.28334
lfemur 22.27 6.5058 -18.7595
ltibia 13.3817
lfoot -17.9719 36.9692
ltoes -28.2472
1811
root -2.74138 13.786 8.67835 12.6457 14.0309 11.754
lowerback 15.6158 -0.205986 -10.5924
upperback -2.32424 -2.28296 0.700754
thorax -10.9868 -0.378288 7.36024
lowerneck -1.46545 -6.07106 -7.91925
upperneck 3.73053 -7.98618 3.09584
head 1.92336 -4.0413 2.15916
rclavicle -3.04141e-014 1.98785e-014
rhumerus -25.2722 14.1102 -66.174
rradius 53.557
rwrist 12.9042
rhand -0.76127 -49.0635
rfingers 7.12502
rthumb 24.861 -77.467
lclavicle -3.04141e-014 1.98785e-014
lhumerus -17.9803 -18.6084 87.7658
lradius 51.9586
lwrist 4.21913
lhand -31.1094 16.2689
lfingers 7.12502
lthumb -4.38876 46.2034
rfemur -76.1319 -18.8297 7.42748
rtibia 77.4048
rfoot -2.85449 11.3951
rtoes 0.848691
lfemur 21.2928 6.73767 -18.6532
ltibia 16.037
lfoot -20.5092 36.3051
ltoes -28.222
1812
root -2.74204 13.7736 8.54026 12.3306 14.1523 11.7764
lowerback 15.4969 -0.143653 -11.2181
upperback -2.29366 -2.30789 0.680878
thorax -10.8635 -0.360561 7.69494
lowerneck -1.3743 -6.1818 -8.1497
upperneck 4.10545 -8.14738 3.34097
head 2.06613 -4.1268 2.27344
rclavicle 4.17448e-015 -1.59028e-015
rhumerus -25.952 14.3103 -66.968
rradius 52.7821
rwrist 13.4716
rhand -0.310688 -48.2133
rfingers 7.12502
rthumb 25.2928 -76.5565
lclavicle 4.17448e-015 -1.59028e-015
lhumerus -18.3418 -19.229 87.9343
lradius 51.6313
lwrist 4.26593
lhand -29.3007 23.0347
lfingers 7.12502
lthumb -2.6421 52.9981
rfemur -76.4329 -19.3387 8.10542
rtibia 79.5605
rfoot -3.29515 12.2478
rtoes -0.00556013
lfemur 19.6815 7.31436 -18.2464
ltibia 18.9393
lfoot -20.6147 36.1377
ltoes -29.6168
1813
root -2.75033 13.7709 8.42085 11.9161 14.2067 11.7227
lowerback 15.3855 -0.0402773 -11.7501
upperback -2.25385 -2.26216 0.624026
thorax -10.7536 -0.316945 7.91815
lowerneck -1.2636 -6.28822 -8.52303
upperneck 4.46294 -8.31007 3.75582
head 2.21917 -4.21238 2.47131
rclavicle 1.88845e-014 2.38542e-015
rhumerus -26.6983 14.4263 -67.8977
rradius 51.9938
rwrist 13.872
rhand 0.707102 -47.8689
rfingers 7.12502
rthumb 26.2675 -76.0705
lclavicle 1.88845e-014 2.38542e-015
lhumerus -18.8413 -19.9028 88.0308
lradius 51.2312
lwrist 4.1398
lhand -25.1843 31.2129
lfingers 7.12502
lthumb 1.33359 61.1885
rfemur -76.4947 -19.717 8.76713
rtibia 81.7663
rfoot -3.69303 12.7466
rtoes 0.225718
lfemur 18.2291 8.64401 -17.396
ltibia 21.8581
lfoot -21.877 35.0236
ltoes -29.9651
1814
root -2.76181 13.7661 8.31246 11.5654 14.2098 11.7336
lowerback 15.2237 0.0554472 -12.2522
upperback -2.21408 -2.21817 0.507233
thorax -10.6179 -0.280942 8.05453
lowerneck -1.22478 -6.4062 -8.78994
upperneck 4.73895 -8.4815 4.06025
head 2.34896 -4.30088 2.61264
rclavicle 1.98785e-016 2.22639e-014
rhumerus -27.4542 14.4503 -68.8768
rradius 51.1866
rwrist 14.324
rhand 2.38446 -47.0625
rfingers 7.12502
rthumb 27.8722 -75.0146
lclavicle 1.98785e-016 2.22639e-014
lhumerus -19.4135 -20.5851 88.0105
lradius 50.8254
lwrist 4.05145
lhand -24.8135 30.4049
lfingers 7.12502
lthumb 1.69166 60.3779
rfemur -76.5349 -20.0852 9.30469
rtibia 83.9585
rfoot -4.29014 12.972
rtoes 0.861351
lfemur 16.9729 10.0548 -16.6397
ltibia 24.3908
lfoot -22.9423 34.0557
ltoes -29.9506
1815
root -2.77049 13.7623 8.21707 11.36 14.207 12.002
lowerback 14.8902 0.103067 -12.8286
upperback -2.17282 -2.23576 0.273785
thorax -10.3696 -0.283471 8.10723
lowerneck -1.33356 -6.55742 -9.02637
upperneck 5.05719 -8.68359 4.2927
head 2.51832 -4.40451 2.71813
rclavicle -4.96962e-015 1.43125e-014
rhumerus -28.1429 14.5375 -69.9374
rradius 50.3984
rwrist 14.3308
rhand 3.54163 -46.6461
rfingers 7.12502
rthumb 28.978 -74.4137
lclavicle -4.96962e-015 1.43125e-014
lhumerus -20.1155 -21.1619 87.88
lradius 50.4682
lwrist 3.92663
lhand -23.7722 29.3341
lfingers 7.12502
lthumb 2.69735 59.2968
rfemur -76.5534 -20.6137 9.48548
rtibia 86.0395
rfoot -4.93065 13.1138
rtoes 1.33103
lfemur 15.9097 11.1452 -16.355
ltibia 26.4289
lfoot -23.9042 33.2838
ltoes -29.7094
